# xmcd
#
# Track frame offsets:
#	150
#	16635
#	23797
#	43039
#	58426
#	73499
#	89588
#	100537
#	111305
#	127033
#	139426
#	154936
#
# Disc length: 2299
#
# Revision: 1
# Processed by: cddbd v1.5.1PL0 Copyright (c) Steve Scherf et al.
# Submitted via: VisiTrax 2.9.5.180 - For more info visit www.synapsa.com
# Normalized: r0:DSETVAR1
#
DISCID=b008f90c
DTITLE=Various Artist - CDXMAS vol. 1011 1998
DYEAR=1998
DGENRE=Christmas
TTITLE0=Doug Wayne - Almost time for christmas
TTITLE1=Shania Twain - God bless the child
TTITLE2=Sawyer Brown - Hallelujah, he is born
TTITLE3=Trace Adkins - The christmas song
TTITLE4=Billy Ray Reynolds - The night before christmas (with you)
TTITLE5=Billy Ray Reynolds - Mary had a bay
TTITLE6=Jeff Foxworthy - Redneck 12 days of christmas
TTITLE7=Bill Engvall - Here's your sign christmas
TTITLE8=Ray Stevens - Bad little boy
TTITLE9=Jason Parman - Rudolph is a rascal
TTITLE10=David Crawford - Christmas bring the child out in me
TTITLE11=Hometown - Dang it, I'm vixen
EXTD=
EXTT0=
EXTT1=
EXTT2=
EXTT3=
EXTT4=
EXTT5=
EXTT6=
EXTT7=
EXTT8=
EXTT9=
EXTT10=
EXTT11=
PLAYORDER=
